<svg aria-hidden="true" style="position: absolute; width: 0; height: 0; overflow: hidden;" version="1.1" xmlns="http://www.w3.org/2000/svg" xmlns:xlink="http://www.w3.org/1999/xlink">
<defs>
<symbol id="icon-detail" viewBox="0 0 32 32">
<path fill="#eda413" style="fill: var(--color1, #eda413)" d="M3.758 0.62h23.701c1.86 0 3.368 1.508 3.368 3.368v23.701c0 1.86-1.508 3.368-3.368 3.368h-23.701c-1.86 0-3.368-1.508-3.368-3.368v-23.701c0-1.86 1.508-3.368 3.368-3.368z"></path>
<path fill="#fff" style="fill: var(--color2, #fff)" d="M15.609 10.313c-3.558 0-6.842 2.074-8.368 5.289-0.068 0.153-0.068 0.332 0 0.479 1.532 3.211 4.816 5.284 8.368 5.284s6.837-2.074 8.368-5.284c0.068-0.147 0.068-0.326 0-0.479-1.526-3.216-4.81-5.289-8.368-5.289zM15.609 19.176c-1.837 0-3.337-1.5-3.337-3.337s1.5-3.337 3.337-3.337c1.837 0 3.337 1.5 3.337 3.337s-1.5 3.337-3.337 3.337z"></path>
<path fill="#fff" style="fill: var(--color2, #fff)" d="M15.609 18.049c1.221 0 2.211-0.99 2.211-2.211s-0.99-2.211-2.211-2.211-2.211 0.99-2.211 2.211c0 1.221 0.99 2.211 2.211 2.211z"></path>
</symbol>
</defs>
</svg>
